{"title":"[AnimeRG] Code Geass Akito the Exiled - 03 BD (10-bit 1080p AC3)","uid":12080745,"size":1763388922,"categoryP":"video","categoryS":"hd___movies","magnet":"?xt=urn:btih:5a32d53b9fa9a075094a7d3cb5555a977a945eb6&amp;dn=%5BAnimeRG%5D+Code+Geass+Akito+the+Exiled+-+03+BD+%2810-bit+1080p+AC3%29&amp;tr=udp%3A%2F%2Ftracker.openbittorrent.com%3A80&amp;tr=udp%3A%2F%2Fopen.demonii.com%3A1337&amp;tr=udp%3A%2F%2Ftracker.coppersurfer.tk%3A6969&amp;tr=udp%3A%2F%2Fexodus.desync.com%3A6969","seeders":7,"leechers":1,"uploader":"AnimeRG","files":1,"time":1435761272,"description":"Code Geass Akito the Exiled - 03 BD\n\n\nDescription\n\nComplete name : [AnimeRG] Code Geass Akito the Exiled - 03 (10-bit x264 1080p ).mkv\nFormat : Matroska\nFormat version : Version 4 / Version 2\nFile size : 1.64 GiB\nDuration : 1h 0mn\nOverall bit rate : 3 900 Kbps\nEncoded date : UTC 2015-07-01 11:19:00\nWriting library : libebml v1.3.1 + libmatroska v1.4.2\nDURATION : 00:59:59.200000000\nNUMBER_OF_FRAMES : 1991\nNUMBER_OF_BYTES : 7063749\n_STATISTICS_WRITING_APP : mkvmerge v8.1.0 ('Psychedelic Postcard') 64bit\n_STATISTICS_WRITING_DATE_UTC : 2015-07-01 11:19:00\n_STATISTICS_TAGS : BPS DURATION NUMBER_OF_FRAMES NUMBER_OF_BYTES\n\nVideo\nID : 1\nFormat : AVC\nFormat/Info : Advanced Video Codec\nFormat profile : High &lt;a class=&quot;__cf_email__&quot; href=&quot;/cdn-cgi/l/email-protection&quot; data-cfemail=&quot;526362121e677c63&quot;&gt;[email&amp;#160;protected]&lt;/a&gt;&lt;script data-cfhash='f9e31' type=&quot;text/javascript&quot;&gt;\n/* &lt;![CDATA[ */!function(){try{var t=&quot;currentScript&quot;in document?document.currentScript:function(){for(var t=document.getElementsByTagName(&quot;script&quot;),e=t.length;e--;)if(t[e].getAttribute(&quot;data-cfhash&quot;))return t[e]}();if(t&amp;&amp;t.previousSibling){var e,r,n,i,c=t.previousSibling,a=c.getAttribute(&quot;data-cfemail&quot;);if(a){for(e=&quot;&quot;,r=parseInt(a.substr(0,2),16),n=2;a.length-n;n+=2)i=parseInt(a.substr(n,2),16)^r,e+=String.fromCharCode(i);e=document.createTextNode(e),c.parentNode.replaceChild(e,c)}t.parentNode.removeChild(t);}}catch(u){}}()/* ]]&gt; */&lt;/script&gt;\nFormat settings, CABAC : Yes\nFormat settings, ReFrames : 9 frames\nCodec ID : V_MPEG4/ISO/AVC\nDuration : 1h 0mn\nBit rate : 3 182 Kbps\nWidth : 1 920 pixels\nHeight : 1 080 pixels\nDisplay aspect ratio : 16:9\nFrame rate mode : Constant\nFrame rate : 23.976 fps\nColor space : YUV\nChroma subsampling : 4:2:0\nBit depth : 10 bits\nScan type : Progressive\nBits/(Pixel*Frame) : 0.064\nStream size : 1.34 GiB (82%)\nWriting library : x264 core 133 r2334 a3ac64b\nEncoding settings : cabac=1 / ref=9 / crf=17.0\nDefault : Yes\nForced : No\nColor range : Limited\nColor primaries : BT.709\nTransfer characteristics : BT.709\nMatrix coefficients : BT.709\n\nAudio\nID : 2\nFormat : AC-3\nFormat/Info : Audio Coding 3\nMode extension : CM (complete main)\nFormat settings, Endianness : Big\nCodec ID : A_AC3\nDuration : 1h 0mn\nBit rate mode : Constant\nBit rate : 640 Kbps\nChannel(s) : 6 channels\nChannel positions : Front: L C R, Side: L R, LFE\nSampling rate : 48.0 KHz\nCompression mode : Lossy\nStream size : 276 MiB (16%)\nTitle : Surround 5.1\nLanguage : Japanese\nDefault : Yes\nForced : No\nDURATION : 01:00:17.152000000\nNUMBER_OF_FRAMES : 113036\nNUMBER_OF_BYTES : 289372160\n_STATISTICS_WRITING_APP : mkvmerge v8.1.0 ('Psychedelic Postcard') 64bit\n_STATISTICS_WRITING_DATE_UTC : 2015-07-01 11:19:00\n_STATISTICS_TAGS : BPS DURATION NUMBER_OF_FRAMES NUMBER_OF_BYTES\n\nText #1\nID : 3\nFormat : PGS\nMuxing mode : zlib\nCodec ID : S_HDMV/PGS\nCodec ID/Info : Picture based subtitle format used on BDs/HD-DVDs\nLanguage : English\nDefault : No\nForced : No\nDURATION : 00:59:59.242000000\nNUMBER_OF_FRAMES : 1629\nNUMBER_OF_BYTES : 5079735\n_STATISTICS_WRITING_APP : mkvmerge v8.1.0 ('Psychedelic Postcard') 64bit\n_STATISTICS_WRITING_DATE_UTC : 2015-07-01 11:19:00\n_STATISTICS_TAGS : BPS DURATION NUMBER_OF_FRAMES NUMBER_OF_BYTES\n\nText #2\nID : 4\nFormat : PGS\nMuxing mode : zlib\nCodec ID : S_HDMV/PGS\nCodec ID/Info : Picture based subtitle format used on BDs/HD-DVDs\nLanguage : Japanese\nDefault : No\nForced : No\n\nMenu\n00:00:00.000 : en:Chapter 01\n00:02:33.736 : en:Chapter 02\n00:06:10.536 : en:Chapter 03\n00:12:50.853 : en:Chapter 04\n00:16:11.637 : en:Chapter 05\n00:21:28.662 : en:Chapter 06\n00:30:28.159 : en:Chapter 07\n00:38:56.208 : en:Chapter 08\n00:42:23.666 : en:Chapter 09\n00:52:13.755 : en:Chapter 10\n00:54:37.440 : en:Chapter 11\n00:57:41.958 : en:Chapter 12\n01:00:04.100 : en:Chapter 13\n\nSource: BD-J\nPlease Seed for others to enjoy too!","torrent":{"xt":"urn:btih:5a32d53b9fa9a075094a7d3cb5555a977a945eb6","amp;dn":"%5BAnimeRG%5D+Code+Geass+Akito+the+Exiled+-+03+BD+%2810-bit+1080p+AC3%29","amp;tr":["udp%3A%2F%2Ftracker.openbittorrent.com%3A80","udp%3A%2F%2Fopen.demonii.com%3A1337","udp%3A%2F%2Ftracker.coppersurfer.tk%3A6969","udp%3A%2F%2Fexodus.desync.com%3A6969"],"infoHash":"5a32d53b9fa9a075094a7d3cb5555a977a945eb6","infoHashBuffer":{"type":"Buffer","data":[90,50,213,59,159,169,160,117,9,74,125,60,181,85,90,151,122,148,94,182]},"announce":[],"urlList":[]}}